

<svg xmlns="http://www.w3.org/2000/svg" width="624" height="568" viewBox="0 0 624 568">
  <defs>
    <style>
      .cls-1 {
        fill: #ffffff
      }
    </style>
  </defs>
  <path class="cls-1" d="M309.5-.5h4c-1.167,2.167,2.167-.167,2,2a42.2,42.2,0,0,0,.5,7.586c6.46,1.5,15.28-4.209,23-.872C372.044,11.707,374.9,30.592,403.5,37.56c14,6.112,28-.77,42.949,1.073,13.843,4.6,21.2,9.316,28.52,17.78,5.445,4.712,19.536,11.928,32.268,14.522-16.683,3.152-34.654,2.605-52.641,1.986-26.7,7.644-34.2,20.444-60.258,29.56-25.466,1.756-53.627-17.851-78.209-6.783-0.719,11.85-1.646,27.437,1.386,37.879,29.874,12.918,64.2,29.709,90.194,43.888,9.34,4.793,18.678,11.746,29.511,17.316,32.768,21.232,63.347,44.653,89.492,73.508a242.942,242.942,0,0,1,34.158,46.445c10.709,19.154,21.166,51.515,21.63,76.767,0.833,1.833-1.333.667-3,2.022-18.333-2.421-36.667,2.236-55.845-1.022-0.721-6.333-1.395-12.667-2.555-19.055-8.169-31.532-17.19-52.136-28.975-69.57-10.69-18.31-24.414-33.586-39.938-48.062-18.709-18.958-42.118-33.215-65.17-49.029C366.281,191.13,338.029,178.608,313.5,163.5a13.425,13.425,0,0,0-4.059.548c-50.671,25.9-99.965,55.272-139.4,91-16.536,15.8-31.581,33.086-44.166,53.785-5.851,11.571-12.111,22.539-16.83,35.84-4.377,13.326-9.289,31.734-9.785,47.6-19.082,1.874-39.323-.316-60.357.5,0.258-24.388,11.54-59.439,21.833-77.036,9.763-17.9,21.747-33.587,34.8-49.2,3.534-1.466,5.919-4.081,7.959-8.041,2.167,1.167-.167-2.167,2.431-1.569,26.576-25.09,55.188-48.145,88.821-67.908,16.511-10.066,34.72-19.859,52.39-29.485,10.55-4.1,18.54-8.423,30.19-13.654,7.589-4.638,22.347-8.822,28.794-14.384,3.857-22-3.235-44-.626-67,0-11,0-22-.105-34.2C306.169,20.484,303.64,6.844,309.5-.5Zm-118,244.442c79.667,0.882,159.333.985,240,.558,1.833-.833.667,1.333,0,2.122-41-.3-82,0-124-0.122h-93c-4.667,0-9.333,0-15.185.014C195.983,245.8,185.476,249.307,191.5,243.942Zm-9,8.233c43.667,0.792,87.333.023,132,.325h99c5,0,10,0,16.134.248,4.329,1.547,12.3-4.17,14.866,1.752,0.833,0.667-1.333,2.833-3,2.113-45-.192-90-0.086-136-0.113h-102c-5.333,0-10.667,0-16.749-.378C180.434,258.666,173.709,254.023,182.5,252.175Zm-12,10.581c47.667-.5,95.333-0.133,144-0.256,23.667,0,47.333,0,72-.073,11.667,0.41,23.333-.458,36.266.858,10.017,1.53,25.67-3.921,32.734,2.215,1.833-.833.667,1.333,0,2.054-95.667-.135-191.333,0-288.224.142C164.926,265.7,169.413,263.554,170.5,262.756Zm-8,11.644c50.333,0.25,100.667,0,152,.1h76c12.333,0,24.667,0,38.071-.118,11.938,0.612,25.1-.5,36.823,1.224,1.2,1.13,1.064,3.6,3.106,4.894-0.333.667,0.833,2.833-2,1.05-103.667-.125-207.333,0-312.061,1.117-3.555-.621,1.038-5.519,1.135-6.083A12.506,12.506,0,0,1,162.5,274.4Zm-13,13.481c53.667-.106,107.333,1.346,162,0.621,26.667-.15,53.333.677,81.074-0.725,26.274-1.692,53.755,2.1,80.113-.464,4,1,4.656,5.344,7.813,8.187-0.333.667,0.833,2.833-2,2.031-111.667-.162-223.333.178-336-0.031-1.833,2-.667-3.5-0.863-3.794C145.579,292.743,143.581,287.965,149.5,287.881Zm-12,16.26c115.667,0.9,231.333-.58,347.832-0.473,2.493,2.507,4.485,5.515,7.168,8.832-1.167,1,2.167,2,.838,3.434-29.6,3.57-60-1.559-90.838,1.516-90.667-.19-181.333.577-273-0.95-1.833.833-.667-1.333-0.789-2.789C131.71,310.377,134.1,306.429,137.5,304.141Zm-13,20.359c123.667,0,247.333,0,372.177-.265,2.93,2.107,3.077,8.872,5.823,11.265-0.333.667,0.833,2.833-2,2.813-126.333.45-252.667,0.018-380-.813-1.833.833-.667-1.333-1.042-3.042C121,331,123.331,328.331,124.5,324.5Zm-9,22c130.333,0,260.667,0,391.128.8,2.625,1.442,1.85,8.062,4.872,10.2a15.61,15.61,0,0,0,.714,4.714c-32.3.7-65.983,0.017-99.714,0.286h-300c-2.167,1.167.167-2.167-2.243-2.219C112.127,355.909,113.192,350.5,115.5,346.5Zm-7,26q201.5,0,403.67.174c4.724,2.332,2.758,11.3,3.33,17.787-135.667.1-271.333,0-408,.039-0.667-2.167-2.833.167-2.926-3.094C108.321,382.749,104.505,375.726,108.5,372.5Zm-88,27h438c24,0,48,0,73.045-.045,23.764,0.236,48.249-.249,72.182,1.045,1.775,9,.18,18,0.773,28-1.833,1-.667,2-2,3.84-97.667.22-195.333,3.1-294,2.16H88.5c-12,0-24,0-37.236.236-10.6-1.4-25.787,1.787-34.071-3.469C19.011,421.333,14.907,406.783,20.5,399.5Zm-19,52h180c14.667,0,29.333,0,45,.046,10.667-.576,21.333,3.452,33.362,7.592,22.087,11.58,39.28,28.053,50.638,51.362-0.833,1.833,1.333.667,2.681,0.681,7.831-21.836,23.892-35.442,41.738-47.545,15.135-11.089,42.4-13.919,63.581-12.136h203c2.167-.833-0.167,1.333,2.094,3-0.634,5,.812,10-0.333,16.8-39.744,3.293-80.656-2.636-121.761.784-20-2.382-40,3.064-61-.6-20,.241-40-0.919-60.579,2.271-19.87,6.527-29,13.682-38.8,23.95-8.73,12.447-16.114,20.657-21.274,42.148-3.446,1.554-9.892.108-15.352,0.648-1,1.167-2-2.167-2.8-2.24-7.991-29.775-20.615-40.617-38.2-54.039-15.389-12.808-42.151-13.511-63-11.468-65.667-2.05-131.333-1.224-198-1.253,1.167-2.167-2.167.167-2.053-3C0.9,462.833-.453,457.167,1.5,451.5Zm1,32c56.333,0,112.667,0,170.26-.372,26.543,2.632,57.835-5.44,82.037,9.088,17.57,10.832,30.571,22.8,35.7,55.284,2.167,0.667-.167,2.833,2.2,3.2,11.85-1.15,27.437,1.437,37.5-2,6.534-31.946,16.653-43.01,36.384-55.344,13.2-10.892,39.779-10.8,59.922-9.854,64.333,0,128.667,0,194.135-.069,5.515,4.3,1.629,12.347,2.269,19.358-11.92,3.686-26.576.6-40.4,1.711-48,0-96,0-145.35-.376-21.764,2.873-51.765-6.228-67.043,9.638C357.7,522.11,343.822,537.125,346.5,567.1c-22.333.971-44.667,0.036-68,.4-1,1.167-2-2.167-3.681-1.562a87.629,87.629,0,0,0,.189-19.2c-7.234-22.831-18.515-32.179-39.508-42.694-77.667.2-155.333,0.927-234.061-.657C2.51,497.115-2.055,488.415,2.5,483.5Z"/>
</svg>
